<svg width="64" height="64" viewBox="0 0 64 64" fill="none" xmlns="http://www.w3.org/2000/svg">
<path d="M0 12C0 5.37258 5.37258 0 12 0H52C58.6274 0 64 5.37258 64 12V52C64 58.6274 58.6274 64 52 64H12C5.37258 64 0 58.6274 0 52V12Z" fill="#A347FF"/>
<path d="M50.891 25.8515C50.6944 18.8431 46.2604 16 40.5489 16C36.9991 16 33.867 17.7082 32.0122 20.3057C30.1454 17.7082 27.0131 16 23.4635 16C17.752 16 13.3178 18.8431 13.1213 25.8515C12.9985 30.2273 12.9248 33.6321 13.1213 38.1485C13.4284 44.9579 17.752 48 23.4635 48C27.0131 48 30.1454 46.2918 32 43.706C33.867 46.3034 36.9868 48 40.5366 48C46.2481 48 50.5717 44.9579 50.8787 38.1485C51.0753 33.6321 51.0015 30.2273 50.8787 25.8515H50.891ZM29.1012 31.4676C29.0153 33.9364 27.9589 35.0245 25.3673 35.0245C22.7756 35.0245 21.7192 33.9364 21.6333 31.4676C21.5474 28.9988 21.5474 26.0621 21.6333 23.7339C21.7192 21.2651 22.7756 20.177 25.3673 20.177C27.9589 20.177 29.003 21.2651 29.1012 23.7339C29.1873 26.0621 29.1873 29.0106 29.1012 31.4676ZM46.3832 31.4676C46.2972 33.9364 45.2408 35.0245 42.6493 35.0245C40.0576 35.0245 39.0011 33.9364 38.9152 31.4676C38.8293 28.9988 38.8293 26.0621 38.9152 23.7339C39.0011 21.2651 40.0576 20.177 42.6493 20.177C45.2408 20.177 46.285 21.2651 46.3832 23.7339C46.4692 26.0621 46.4692 29.0106 46.3832 31.4676Z" fill="white"/>
</svg>
