<svg width="64" height="64" viewBox="0 0 64 64" fill="none" xmlns="http://www.w3.org/2000/svg">
<rect width="64" height="64" rx="12" fill="url(#paint0_linear_23995_39264)"/>
<mask id="mask0_23995_39264" style="mask-type:alpha" maskUnits="userSpaceOnUse" x="15" y="8" width="34" height="48">
<path fill-rule="evenodd" clip-rule="evenodd" d="M39.1328 51.9367C39.1328 51.9367 44.386 46.727 45.531 39.7216C48.6109 39.7216 50.5133 32.2739 47.4328 29.6535C47.4438 29.4191 47.4814 29.0682 47.5293 28.6224C48.045 23.8206 49.7442 8 32.0001 8C14.2582 8 15.9551 23.8167 16.4705 28.6206C16.5184 29.0673 16.5562 29.4188 16.567 29.6535C13.4868 32.2739 15.3889 39.7216 18.469 39.7216C19.6138 46.727 24.8673 51.9367 24.8673 51.9367C25.9511 53.0323 28.8952 55.2234 32.0002 55.2234C35.1052 55.2234 38.049 53.0323 39.1328 51.9367ZM20.7702 34.9502C24.3667 40.8693 29.7845 36.7513 29.7845 36.7513C30.4033 36.2828 31.1329 35.9379 31.9804 35.9453C32.8279 35.9528 33.5045 36.2865 34.1141 36.7487C34.1141 36.7487 39.5324 40.8678 43.1294 34.9487C46.7253 29.0316 45.2762 22.5875 45.2762 22.5875C45.0223 21.0097 44.1855 19.9568 42.6064 20.089C41.0318 20.2208 37.6141 24.3383 37.6141 24.3383C37.3317 24.6776 36.7402 24.9548 36.301 24.9548L27.6011 24.9563C27.1614 24.9563 26.5704 24.6791 26.2885 24.3398C26.2885 24.3398 22.8703 20.2223 21.2932 20.0906C19.7161 19.9583 18.8773 21.0122 18.6249 22.589C18.6249 22.589 17.1738 29.0321 20.7702 34.9502ZM24.7466 33.5674C24.7466 33.0056 25.2012 32.5501 25.7621 32.5501C26.3229 32.5501 26.7776 33.0056 26.7776 33.5674C26.7776 34.1293 26.3229 34.5847 25.7621 34.5847C25.2012 34.5847 24.7466 34.1293 24.7466 33.5674ZM37.8168 33.1156C37.8168 33.5358 38.1569 33.8764 38.5763 33.8764C38.9958 33.8764 39.3358 33.5358 39.3358 33.1156V31.4603H40.988C41.4075 31.4603 41.7475 31.1196 41.7475 30.6994C41.7475 30.2792 41.4075 29.9386 40.988 29.9386H39.3358V28.2834C39.3358 27.8632 38.9958 27.5226 38.5763 27.5226C38.1569 27.5226 37.8168 27.8632 37.8168 28.2834V29.9386H36.1643C35.7449 29.9386 35.4048 30.2792 35.4048 30.6994C35.4048 31.1196 35.7449 31.4603 36.1643 31.4603H37.8168V33.1156ZM25.7623 27.9725C25.2014 27.9725 24.7468 28.4279 24.7468 28.9898C24.7468 29.5516 25.2014 30.0071 25.7623 30.0071C26.3231 30.0071 26.7778 29.5516 26.7778 28.9898C26.7778 28.4279 26.3231 27.9725 25.7623 27.9725ZM23.4774 30.2611C24.0382 30.2611 24.4929 30.7166 24.4929 31.2784C24.4929 31.8403 24.0382 32.2957 23.4774 32.2957C22.9165 32.2957 22.4618 31.8403 22.4618 31.2784C22.4618 30.7166 22.9165 30.2611 23.4774 30.2611ZM29.0627 31.2785C29.0627 30.7167 28.608 30.2612 28.0472 30.2612C27.4863 30.2612 27.0317 30.7167 27.0317 31.2785C27.0317 31.8403 27.4863 32.2958 28.0472 32.2958C28.608 32.2958 29.0627 31.8403 29.0627 31.2785Z" fill="#0064FF"/>
</mask>
<g mask="url(#mask0_23995_39264)">
<path d="M31.9977 55.2235C50.0018 55.2235 64.5969 44.6521 64.5969 31.6117C64.5969 18.5713 50.0018 8 31.9977 8C13.9936 8 -0.601562 18.5713 -0.601562 31.6117C-0.601562 44.6521 13.9936 55.2235 31.9977 55.2235Z" fill="white"/>
<g filter="url(#filter0_f_23995_39264)">
<path fill-rule="evenodd" clip-rule="evenodd" d="M49.205 50.7834C54.2116 46.3389 57.5307 38.552 57.5307 29.6888C57.5307 24.9728 56.591 20.5615 54.9574 16.7963C59.0363 20.847 61.4781 25.9994 61.4781 31.6087C61.4781 39.5054 56.6385 46.4968 49.205 50.7834ZM38.4032 54.6618C36.3413 55.0278 34.1982 55.2205 31.9989 55.2205C15.7179 55.2205 2.51953 44.6491 2.51953 31.6087C2.51953 18.9739 14.9097 8.65692 30.4891 8.02734C25.1108 12.356 21.4933 20.4358 21.4933 29.6888C21.4933 42.9897 28.9682 53.8664 38.4032 54.6618Z" fill="white"/>
</g>
<g filter="url(#filter1_f_23995_39264)">
<path fill-rule="evenodd" clip-rule="evenodd" d="M23.8446 57.3646C11.3287 61.8245 -1.76357 58.5933 -7.33428 48.8966C-13.6203 37.9544 -8.02286 22.7935 5.15623 14.4198C3.21713 19.4151 3.31125 25.8276 5.58962 32.1878C6.07699 36.1906 7.4485 40.3866 9.7445 44.3833C13.3458 50.6521 18.5071 55.1867 23.8446 57.3646ZM43.5067 31.7865C43.0193 27.7837 41.6478 23.5876 39.3518 19.591C37.0054 15.5067 33.9969 12.1586 30.7089 9.71875C36.2566 11.1771 40.9348 14.4122 43.7255 19.2699C46.8071 24.6339 47.0328 31.0117 44.9097 37.1068C44.6109 35.3507 44.1443 33.5666 43.5067 31.7865Z" fill="white"/>
</g>
<g filter="url(#filter2_f_23995_39264)">
<path fill-rule="evenodd" clip-rule="evenodd" d="M43.9565 39.4875C47.043 32.7035 47.2104 25.341 43.7256 19.2751C42.7087 17.5049 41.4411 15.9503 39.9723 14.6186C42.0904 18.6005 43.6078 23.6501 44.1536 29.2284C44.5069 32.8401 44.4178 36.3142 43.9565 39.4875ZM29.151 54.9833C15.2238 62.6209 -0.967517 59.9841 -7.33428 48.9017C-13.8221 37.6084 -7.65135 21.8212 6.44845 13.64C11.5299 10.6916 16.9476 9.13345 22.103 8.875C17.968 13.3953 15.68 22.1667 16.6369 31.9474C17.7619 43.4472 23.0166 52.7006 29.151 54.9833Z" fill="white"/>
</g>
<g filter="url(#filter3_f_23995_39264)">
<path fill-rule="evenodd" clip-rule="evenodd" d="M40.2653 45.5731C44.4435 38.4027 44.4381 28.4483 39.4765 19.8116C36.8435 15.2283 33.1928 11.6743 29.1104 9.35547C35.3538 10.5822 40.6706 13.9552 43.7256 19.273C48.2908 27.2198 46.5882 37.3919 40.2653 45.5731ZM31.9373 53.2926C31.2915 53.7232 30.6265 54.1382 29.9428 54.5348C15.8431 62.716 -0.84649 60.1928 -7.33429 48.8996C-12.7023 39.5555 -9.4044 27.135 -0.119497 18.4917C-2.90475 25.3383 -2.37723 33.961 1.9898 41.5627C8.6318 53.1244 21.7497 58.1363 31.9373 53.2926Z" fill="white"/>
</g>
<g filter="url(#filter4_f_23995_39264)">
<path fill-rule="evenodd" clip-rule="evenodd" d="M46.0449 32.5438C45.6827 34.9475 41.9342 33.4525 41.6112 31.0431C41.1811 27.8348 40.1403 24.672 38.4421 21.7158C36.9872 19.1833 35.1603 16.9949 33.0634 15.1756C31.2695 13.6192 32.1037 10.0052 34.2756 10.9586C38.2459 12.7015 41.5542 15.4964 43.7227 19.2712C46.0405 23.3057 46.7427 27.9138 46.0449 32.5438Z" fill="white"/>
</g>
<g filter="url(#filter5_f_23995_39264)">
<path fill-rule="evenodd" clip-rule="evenodd" d="M33.889 55.8924C33.3298 56.0879 33.0428 55.283 33.5295 54.9444C37.5458 52.1488 40.8311 47.5009 42.3588 41.7709C43.6514 36.9227 43.4689 32.1133 42.1178 28.0589C41.9324 27.5026 42.6177 27.0551 42.9509 27.5369C45.9099 31.8138 47.0286 37.4629 45.5368 43.0582C43.87 49.3101 39.3474 53.9824 33.889 55.8924Z" fill="white"/>
</g>
<g filter="url(#filter6_f_23995_39264)">
<path d="M30.4387 31.1657C30.4387 36.3253 28.0171 39.8681 24.6765 39.8681C21.3359 39.8681 18.023 35.0455 18.023 29.8859C18.023 24.7262 17.3565 19.6797 20.6971 19.6797C24.0377 19.6797 30.4387 26.006 30.4387 31.1657Z" fill="white"/>
</g>
<g filter="url(#filter7_f_23995_39264)">
<path d="M25.7597 34.8137C27.6937 34.8137 29.2616 33.2237 29.2616 31.2623C29.2616 29.3009 27.6937 27.7109 25.7597 27.7109C23.8257 27.7109 22.2578 29.3009 22.2578 31.2623C22.2578 33.2237 23.8257 34.8137 25.7597 34.8137Z" fill="white" fill-opacity="0.7"/>
</g>
<g filter="url(#filter8_f_23995_39264)">
<path d="M38.5868 33.5964C40.2571 33.5964 41.6112 32.2929 41.6112 30.6849C41.6112 29.0769 40.2571 27.7734 38.5868 27.7734C36.9165 27.7734 35.5625 29.0769 35.5625 30.6849C35.5625 32.2929 36.9165 33.5964 38.5868 33.5964Z" fill="white" fill-opacity="0.7"/>
</g>
<g filter="url(#filter9_f_23995_39264)">
<path d="M42.7592 40.3141C42.7592 45.5444 40.3991 49.7844 37.4878 49.7844C34.5765 49.7844 34.6094 45.5444 34.6094 40.3141C34.6094 35.0838 34.5765 30.8438 37.4878 30.8438C40.3991 30.8438 42.7592 35.0838 42.7592 40.3141Z" fill="white"/>
</g>
<g filter="url(#filter10_f_23995_39264)">
<path d="M45.4233 29.3698C45.4233 34.6001 43.0632 38.8401 40.1519 38.8401C37.2406 38.8401 37.2735 34.6001 37.2735 29.3698C37.2735 27.6774 37.8449 26.3719 40.7561 26.3719C43.6675 26.3719 45.4233 24.1395 45.4233 29.3698Z" fill="white"/>
</g>
<g filter="url(#filter11_f_23995_39264)">
<path d="M45.3697 21.1148C45.3697 26.3451 42.2537 30.5851 38.4098 30.5851C34.566 30.5851 34.6094 26.3451 34.6094 21.1148C34.6094 15.8845 34.566 11.6445 38.4098 11.6445C42.2537 11.6445 45.3697 15.8845 45.3697 21.1148Z" fill="white"/>
</g>
<g opacity="0.6" filter="url(#filter12_f_23995_39264)">
<path d="M22.0625 39.4979C22.0625 43.6618 24.4594 47.0374 27.4162 47.0374C30.373 47.0374 30.3396 43.6618 30.3396 39.4979C30.3396 35.3338 30.373 34.1758 27.4162 34.1758C24.4594 34.1758 22.0625 35.3338 22.0625 39.4979Z" fill="white"/>
</g>
<g opacity="0.6" filter="url(#filter13_f_23995_39264)">
<path d="M16.1445 33.9619C16.1445 36.6002 17.3338 38.739 18.8008 38.739C20.2679 38.739 20.2513 36.6002 20.2513 33.9619C20.2513 31.3236 20.2679 30.5898 18.8008 30.5898C17.3338 30.5898 16.1445 31.3236 16.1445 33.9619Z" fill="white"/>
</g>
<g filter="url(#filter14_f_23995_39264)">
<path d="M51.037 33.611C51.037 37.0292 49.8385 39.8003 48.3601 39.8003C46.8818 39.8003 46.8984 37.0292 46.8984 33.611C46.8984 30.1928 46.8818 29.2422 48.3601 29.2422C49.8385 29.2422 51.037 30.1928 51.037 33.611Z" fill="white"/>
</g>
<g filter="url(#filter15_f_23995_39264)">
<path d="M45.9291 48.0351C44.1509 52.5184 41.596 55.7069 40.2227 55.1566C38.8494 54.6068 40.3064 50.9783 42.0847 46.495C43.8629 42.0117 44.342 40.7586 45.7152 41.3087C47.0886 41.8589 47.7073 43.5517 45.9291 48.0351Z" fill="white"/>
</g>
<g filter="url(#filter16_f_23995_39264)">
<path d="M49.5254 15.4725C50.9882 20.0695 51.0325 24.163 49.6244 24.6156C48.2162 25.0681 47.0463 21.3364 45.5836 16.7393C44.1208 12.1422 43.6981 10.8688 45.1062 10.4163C46.5143 9.96371 48.0627 10.8754 49.5254 15.4725Z" fill="white"/>
</g>
</g>
<defs>
<filter id="filter0_f_23995_39264" x="-10.8066" y="-5.29878" width="85.6093" height="73.8436" filterUnits="userSpaceOnUse" color-interpolation-filters="sRGB">
<feFlood flood-opacity="0" result="BackgroundImageFix"/>
<feBlend mode="normal" in="SourceGraphic" in2="BackgroundImageFix" result="shape"/>
<feGaussianBlur stdDeviation="6.66306" result="effect1_foregroundBlur_23995_39264"/>
</filter>
<filter id="filter1_f_23995_39264" x="-28.7544" y="-9.12161" width="93.8995" height="87.2979" filterUnits="userSpaceOnUse" color-interpolation-filters="sRGB">
<feFlood flood-opacity="0" result="BackgroundImageFix"/>
<feBlend mode="normal" in="SourceGraphic" in2="BackgroundImageFix" result="shape"/>
<feGaussianBlur stdDeviation="9.42018" result="effect1_foregroundBlur_23995_39264"/>
</filter>
<filter id="filter2_f_23995_39264" x="-28.7544" y="-9.96536" width="93.8995" height="88.1456" filterUnits="userSpaceOnUse" color-interpolation-filters="sRGB">
<feFlood flood-opacity="0" result="BackgroundImageFix"/>
<feBlend mode="normal" in="SourceGraphic" in2="BackgroundImageFix" result="shape"/>
<feGaussianBlur stdDeviation="9.42018" result="effect1_foregroundBlur_23995_39264"/>
</filter>
<filter id="filter3_f_23995_39264" x="-25.9973" y="-6.72777" width="88.3852" height="82.1509" filterUnits="userSpaceOnUse" color-interpolation-filters="sRGB">
<feFlood flood-opacity="0" result="BackgroundImageFix"/>
<feBlend mode="normal" in="SourceGraphic" in2="BackgroundImageFix" result="shape"/>
<feGaussianBlur stdDeviation="8.04162" result="effect1_foregroundBlur_23995_39264"/>
</filter>
<filter id="filter4_f_23995_39264" x="14.1646" y="-7.12054" width="50.0575" height="58.8036" filterUnits="userSpaceOnUse" color-interpolation-filters="sRGB">
<feFlood flood-opacity="0" result="BackgroundImageFix"/>
<feBlend mode="normal" in="SourceGraphic" in2="BackgroundImageFix" result="shape"/>
<feGaussianBlur stdDeviation="8.96066" result="effect1_foregroundBlur_23995_39264"/>
</filter>
<filter id="filter5_f_23995_39264" x="23.6313" y="17.6821" width="32.2139" height="47.8897" filterUnits="userSpaceOnUse" color-interpolation-filters="sRGB">
<feFlood flood-opacity="0" result="BackgroundImageFix"/>
<feBlend mode="normal" in="SourceGraphic" in2="BackgroundImageFix" result="shape"/>
<feGaussianBlur stdDeviation="4.82497" result="effect1_foregroundBlur_23995_39264"/>
</filter>
<filter id="filter6_f_23995_39264" x="11.0759" y="12.7869" width="26.2544" height="33.9731" filterUnits="userSpaceOnUse" color-interpolation-filters="sRGB">
<feFlood flood-opacity="0" result="BackgroundImageFix"/>
<feBlend mode="normal" in="SourceGraphic" in2="BackgroundImageFix" result="shape"/>
<feGaussianBlur stdDeviation="3.44641" result="effect1_foregroundBlur_23995_39264"/>
</filter>
<filter id="filter7_f_23995_39264" x="16.284" y="21.7372" width="18.9515" height="19.0491" filterUnits="userSpaceOnUse" color-interpolation-filters="sRGB">
<feFlood flood-opacity="0" result="BackgroundImageFix"/>
<feBlend mode="normal" in="SourceGraphic" in2="BackgroundImageFix" result="shape"/>
<feGaussianBlur stdDeviation="2.98689" result="effect1_foregroundBlur_23995_39264"/>
</filter>
<filter id="filter8_f_23995_39264" x="29.5887" y="21.7997" width="17.9944" height="17.7718" filterUnits="userSpaceOnUse" color-interpolation-filters="sRGB">
<feFlood flood-opacity="0" result="BackgroundImageFix"/>
<feBlend mode="normal" in="SourceGraphic" in2="BackgroundImageFix" result="shape"/>
<feGaussianBlur stdDeviation="2.98689" result="effect1_foregroundBlur_23995_39264"/>
</filter>
<filter id="filter9_f_23995_39264" x="25.8785" y="22.1129" width="25.6102" height="36.4032" filterUnits="userSpaceOnUse" color-interpolation-filters="sRGB">
<feFlood flood-opacity="0" result="BackgroundImageFix"/>
<feBlend mode="normal" in="SourceGraphic" in2="BackgroundImageFix" result="shape"/>
<feGaussianBlur stdDeviation="4.36545" result="effect1_foregroundBlur_23995_39264"/>
</filter>
<filter id="filter10_f_23995_39264" x="28.5425" y="17.1675" width="25.6102" height="30.4032" filterUnits="userSpaceOnUse" color-interpolation-filters="sRGB">
<feFlood flood-opacity="0" result="BackgroundImageFix"/>
<feBlend mode="normal" in="SourceGraphic" in2="BackgroundImageFix" result="shape"/>
<feGaussianBlur stdDeviation="4.36545" result="effect1_foregroundBlur_23995_39264"/>
</filter>
<filter id="filter11_f_23995_39264" x="25.8785" y="2.91363" width="28.2235" height="36.4032" filterUnits="userSpaceOnUse" color-interpolation-filters="sRGB">
<feFlood flood-opacity="0" result="BackgroundImageFix"/>
<feBlend mode="normal" in="SourceGraphic" in2="BackgroundImageFix" result="shape"/>
<feGaussianBlur stdDeviation="4.36545" result="effect1_foregroundBlur_23995_39264"/>
</filter>
<filter id="filter12_f_23995_39264" x="12.4126" y="24.5258" width="27.5772" height="32.1632" filterUnits="userSpaceOnUse" color-interpolation-filters="sRGB">
<feFlood flood-opacity="0" result="BackgroundImageFix"/>
<feBlend mode="normal" in="SourceGraphic" in2="BackgroundImageFix" result="shape"/>
<feGaussianBlur stdDeviation="4.82497" result="effect1_foregroundBlur_23995_39264"/>
</filter>
<filter id="filter13_f_23995_39264" x="8.82933" y="23.2746" width="18.7359" height="22.7788" filterUnits="userSpaceOnUse" color-interpolation-filters="sRGB">
<feFlood flood-opacity="0" result="BackgroundImageFix"/>
<feBlend mode="normal" in="SourceGraphic" in2="BackgroundImageFix" result="shape"/>
<feGaussianBlur stdDeviation="3.6576" result="effect1_foregroundBlur_23995_39264"/>
</filter>
<filter id="filter14_f_23995_39264" x="39.5832" y="21.927" width="18.7671" height="25.189" filterUnits="userSpaceOnUse" color-interpolation-filters="sRGB">
<feFlood flood-opacity="0" result="BackgroundImageFix"/>
<feBlend mode="normal" in="SourceGraphic" in2="BackgroundImageFix" result="shape"/>
<feGaussianBlur stdDeviation="3.6576" result="effect1_foregroundBlur_23995_39264"/>
</filter>
<filter id="filter15_f_23995_39264" x="28.6512" y="30.159" width="29.4007" height="36.0882" filterUnits="userSpaceOnUse" color-interpolation-filters="sRGB">
<feFlood flood-opacity="0" result="BackgroundImageFix"/>
<feBlend mode="normal" in="SourceGraphic" in2="BackgroundImageFix" result="shape"/>
<feGaussianBlur stdDeviation="5.51425" result="effect1_foregroundBlur_23995_39264"/>
</filter>
<filter id="filter16_f_23995_39264" x="33.2137" y="-0.716" width="28.4672" height="36.3968" filterUnits="userSpaceOnUse" color-interpolation-filters="sRGB">
<feFlood flood-opacity="0" result="BackgroundImageFix"/>
<feBlend mode="normal" in="SourceGraphic" in2="BackgroundImageFix" result="shape"/>
<feGaussianBlur stdDeviation="5.51425" result="effect1_foregroundBlur_23995_39264"/>
</filter>
<linearGradient id="paint0_linear_23995_39264" x1="-6.29838e-08" y1="-3.5" x2="76.697" y2="0.128378" gradientUnits="userSpaceOnUse">
<stop stop-color="#4E299A"/>
<stop offset="0.37066" stop-color="#2D4CBD"/>
<stop offset="0.665149" stop-color="#1DD1FE"/>
<stop offset="1" stop-color="#20C3FD"/>
</linearGradient>
</defs>
</svg>
