<svg width="64" height="64" viewBox="0 0 64 64" fill="none" xmlns="http://www.w3.org/2000/svg">
<mask id="mask0_23995_39239" style="mask-type:luminance" maskUnits="userSpaceOnUse" x="0" y="0" width="64" height="64">
<path d="M49.92 0H14.08C6.30383 0 0 6.30383 0 14.08V49.92C0 57.6962 6.30383 64 14.08 64H49.92C57.6962 64 64 57.6962 64 49.92V14.08C64 6.30383 57.6962 0 49.92 0Z" fill="white"/>
</mask>
<g mask="url(#mask0_23995_39239)">
<mask id="mask1_23995_39239" style="mask-type:luminance" maskUnits="userSpaceOnUse" x="0" y="0" width="64" height="64">
<path d="M64 0H0V64H64V0Z" fill="white"/>
</mask>
<g mask="url(#mask1_23995_39239)">
<path d="M64 0H0V64H64V0Z" fill="black"/>
<path d="M64 0H0V64H64V0Z" fill="url(#paint0_linear_23995_39239)" fill-opacity="0.9"/>
<g filter="url(#filter0_f_23995_39239)">
<path d="M202.505 98.9128C183.78 110.62 166.853 123.639 152.615 138.105C108.797 182.623 76.2689 253.956 52.8144 324.996C47.07 342.394 0.843738 337.153 0.84375 318.83L0.843953 13.7614C0.843958 5.68224 7.3934 -0.867188 15.4725 -0.867188H185.808C204.554 -0.867188 218.4 88.9754 202.505 98.9128Z" fill="url(#paint1_radial_23995_39239)"/>
</g>
</g>
<path d="M23.1652 26.0795V37.9169C23.1652 38.1805 22.9607 38.3949 22.7095 38.3949H19.7663C19.515 38.3949 19.3105 38.1805 19.3105 37.9169V26.0795C19.3105 25.816 19.515 25.6016 19.7663 25.6016H22.7095C22.9607 25.6016 23.1652 25.816 23.1652 26.0795ZM18.563 37.8588L15.1343 31.7073L18.3841 26.161C18.5406 25.9243 18.3799 25.6016 18.1051 25.6016L14.5327 25.6082C14.4197 25.6082 14.3133 25.6675 14.2504 25.7657L11.7258 30.2646H10.2521V26.0795C10.2521 25.816 10.0476 25.6016 9.79629 25.6016H6.85418C6.60182 25.6016 6.39844 25.816 6.39844 26.0795V37.9169C6.39844 38.1805 6.60288 38.3949 6.85418 38.3949H9.79739C10.0486 38.3949 10.2531 38.1805 10.2531 37.9169V33.7497H12.0463L14.5561 38.2263C14.6179 38.3334 14.7286 38.4005 14.8478 38.4005H18.2734C18.5396 38.4005 18.7025 38.0956 18.563 37.8588ZM57.1427 38.3949C57.394 38.3949 57.5984 38.1805 57.5984 37.9169V26.0795C57.5984 25.816 57.394 25.6016 57.1427 25.6016H54.306C54.0547 25.6016 53.8502 25.816 53.8502 26.0795L53.8683 32.135L48.7189 25.6082H45.4477C45.1964 25.6082 44.992 25.8226 44.992 26.0862V37.9248C44.992 38.1883 45.1953 38.4016 45.4467 38.4016H48.2769C48.5283 38.4016 48.7316 38.1883 48.7316 37.9248V31.8614L53.8289 38.396L57.1427 38.3949ZM43.8121 26.1297V37.8678C43.8121 38.1593 43.5864 38.396 43.3085 38.396H24.8476C24.5697 38.396 24.3439 38.1593 24.3439 37.8678V26.1297C24.3439 25.8383 24.5697 25.6016 24.8476 25.6016H43.3095C43.5864 25.6016 43.8121 25.8383 43.8121 26.1297ZM39.9809 29.0028C39.9809 28.8967 39.8883 28.8175 39.7882 28.8387C37.7937 29.2563 30.7318 29.32 28.3637 28.8353C28.2657 28.8153 28.1752 28.8945 28.1752 29.0006V34.8082C28.1752 34.911 28.2614 34.9891 28.3594 34.9746C30.3229 34.6697 37.7873 34.72 39.802 34.9813C39.8979 34.9936 39.9809 34.9154 39.9809 34.8149V29.0028Z" fill="white"/>
</g>
<defs>
<filter id="filter0_f_23995_39239" x="-147.156" y="-148.867" width="504.609" height="632.512" filterUnits="userSpaceOnUse" color-interpolation-filters="sRGB">
<feFlood flood-opacity="0" result="BackgroundImageFix"/>
<feBlend mode="normal" in="SourceGraphic" in2="BackgroundImageFix" result="shape"/>
<feGaussianBlur stdDeviation="74" result="effect1_foregroundBlur_23995_39239"/>
</filter>
<linearGradient id="paint0_linear_23995_39239" x1="4.83333" y1="-33.0322" x2="101.593" y2="38.6497" gradientUnits="userSpaceOnUse">
<stop offset="0.109668" stop-color="#72056D"/>
<stop offset="0.888275" stop-color="#E7061F"/>
</linearGradient>
<radialGradient id="paint1_radial_23995_39239" cx="0" cy="0" r="1" gradientUnits="userSpaceOnUse" gradientTransform="translate(169.529 -205.21) rotate(90.6039) scale(346.991 315.175)">
<stop stop-color="#0085FF"/>
<stop offset="1" stop-color="white" stop-opacity="0"/>
</radialGradient>
</defs>
</svg>
