<svg width="64" height="64" viewBox="0 0 64 64" fill="none" xmlns="http://www.w3.org/2000/svg">
<rect width="64" height="64" rx="12" fill="#FF0032"/>
<path d="M28.9999 32.7691C29.4897 32.7691 29.907 32.5967 30.2518 32.2518C30.5967 31.907 30.7691 31.4897 30.7691 30.9999C30.7691 30.5102 30.5967 30.0929 30.2518 29.748C29.907 29.4032 29.4897 29.2308 28.9999 29.2308C28.5102 29.2308 28.0929 29.4032 27.748 29.748C27.4032 30.0929 27.2307 30.5102 27.2307 30.9999C27.2307 31.4897 27.4032 31.907 27.748 32.2518C28.0929 32.5967 28.5102 32.7691 28.9999 32.7691ZM34.9999 32.7691C35.4897 32.7691 35.907 32.5967 36.2519 32.2518C36.5967 31.907 36.7691 31.4897 36.7691 30.9999C36.7691 30.5102 36.5967 30.0929 36.2519 29.748C35.907 29.4032 35.4897 29.2308 34.9999 29.2308C34.5102 29.2308 34.0929 29.4032 33.748 29.748C33.4032 30.0929 33.2307 30.5102 33.2307 30.9999C33.2307 31.4897 33.4032 31.907 33.748 32.2518C34.0929 32.5967 34.5102 32.7691 34.9999 32.7691ZM22.9999 32.7691C23.4897 32.7691 23.907 32.5967 24.2518 32.2518C24.5967 31.907 24.7691 31.4897 24.7691 30.9999C24.7691 30.5102 24.5967 30.0929 24.2518 29.748C23.907 29.4032 23.4897 29.2308 22.9999 29.2308C22.5102 29.2308 22.0929 29.4032 21.748 29.748C21.4032 30.0929 21.2307 30.5102 21.2307 30.9999C21.2307 31.4897 21.4032 31.907 21.748 32.2518C22.0929 32.5967 22.5102 32.7691 22.9999 32.7691ZM40.9999 32.7691C41.4897 32.7691 41.907 32.5967 42.2519 32.2518C42.5967 31.907 42.7691 31.4897 42.7691 30.9999C42.7691 30.5102 42.5967 30.0929 42.2519 29.748C41.907 29.4032 41.4897 29.2308 40.9999 29.2308C40.5102 29.2308 40.0929 29.4032 39.748 29.748C39.4032 30.0929 39.2307 30.5102 39.2307 30.9999C39.2307 31.4897 39.4032 31.907 39.748 32.2518C40.0929 32.5967 40.5102 32.7691 40.9999 32.7691ZM16.9807 48.4614V44.9999H15.8846C15.0981 44.9999 14.4207 44.7158 13.8524 44.1475C13.2841 43.5792 13 42.9018 13 42.1152V19.8846C13 19.0981 13.2841 18.4207 13.8524 17.8524C14.4207 17.2841 15.0981 17 15.8846 17H48.1152C48.9018 17 49.5792 17.2841 50.1475 17.8524C50.7158 18.4207 50.9999 19.0981 50.9999 19.8846V42.1152C50.9999 42.9018 50.7158 43.5792 50.1475 44.1475C49.5792 44.7158 48.9018 44.9999 48.1152 44.9999H47.0191V48.4614H46.1384L44.9819 44.9999H19.0869L17.8615 48.4614H16.9807ZM15.8846 42.7307H48.1152C48.2948 42.7307 48.4422 42.673 48.5576 42.5576C48.673 42.4422 48.7307 42.2947 48.7307 42.1152V19.8846C48.7307 19.7051 48.673 19.5577 48.5576 19.4423C48.4422 19.3269 48.2948 19.2692 48.1152 19.2692H15.8846C15.7051 19.2692 15.5577 19.3269 15.4423 19.4423C15.3269 19.5577 15.2692 19.7051 15.2692 19.8846V42.1152C15.2692 42.2947 15.3269 42.4422 15.4423 42.5576C15.5577 42.673 15.7051 42.7307 15.8846 42.7307Z" fill="white"/>
</svg>
