<svg width="64" height="64" viewBox="0 0 64 64" fill="none" xmlns="http://www.w3.org/2000/svg">
<rect width="64" height="64" rx="12" fill="url(#paint0_linear_23995_39231)"/>
<path d="M25.6667 26.6666V20.8334C25.6667 19.2863 26.2813 17.8025 27.3753 16.7086C28.4692 15.6145 29.953 15 31.5 15H43.1666C44.7138 15 46.1975 15.6145 47.2914 16.7086C48.3853 17.8025 49 19.2863 49 20.8334V32.5C49 34.0471 48.3853 35.5308 47.2914 36.6248C46.1975 37.7187 44.7138 38.3332 43.1666 38.3332H37.3334V44.1666C37.3334 45.7137 36.7188 47.1974 35.6248 48.2914C34.5309 49.3853 33.0471 50 31.5 50C29.953 50 28.4692 49.3853 27.3753 48.2914C26.2813 47.1974 25.6667 45.7137 25.6667 44.1666V38.3332H19.8333C18.2862 38.3332 16.8026 37.7187 15.7087 36.6248C14.6146 35.5308 14 34.0471 14 32.5C14 30.9529 14.6146 29.4692 15.7087 28.3752C16.8026 27.2813 18.2862 26.6666 19.8333 26.6666H25.6667Z" fill="white"/>
<defs>
<linearGradient id="paint0_linear_23995_39231" x1="-10.0571" y1="-32.4571" x2="96.6884" y2="24.9447" gradientUnits="userSpaceOnUse">
<stop stop-color="#97B8FF"/>
<stop offset="0.37066" stop-color="#97BDFF"/>
<stop offset="0.665149" stop-color="#958DFF"/>
<stop offset="1" stop-color="#AA97FF"/>
</linearGradient>
</defs>
</svg>
